ffmpeg started on 2025-05-24 at 15:32:16
Report written to "D:\Convert\FFMetrics\reports\psnr_report-6.txt"
Log level: 32
Command line:
ffmpeg -hide_banner -nostdin -i "G:\\\xc0\xed\xe8\xec\xe5\\\xce\xed\xe3\xee\xe8\xed\xe3\xe8\\!_33_\xc7\xe8\xec\xe0_2024\\DreamCast\\\xd1\xf2\xe0\xed\xee\xe2\xff\xf1\xfc \xe2\xee\xeb\xf8\xe5\xe1\xed\xe8\xf6\xe5\xe9\\[DC] Mahou Shoujo ni Akogarete - 04_Telegram_HEVC.mkv" -i "G:\\\xc0\xed\xe8\xec\xe5\\\xce\xed\xe3\xee\xe8\xed\xe3\xe8\\!_33_\xc7\xe8\xec\xe0_2024\\DreamCast\\\xd1\xf2\xe0\xed\xee\xe2\xff\xf1\xfc \xe2\xee\xeb\xf8\xe5\xe1\xed\xe8\xf6\xe5\xe9\\[DC] Mahou Shoujo ni Akogarete - 04_Telegram.mp4" -lavfi "[0:v]settb=AVTB,setpts=PTS-STARTPTS,format=pix_fmts=yuv420p10,fps=24000/1001,scale=1920:1080:flags=bicubic[main];[1:v]settb=AVTB,setpts=PTS-STARTPTS,format=pix_fmts=yuv420p,fps=24000/1001,scale=1920:1080:flags=bicubic[ref];[main][ref]psnr=eof_action=endall:stats_file='D\\:/Convert/FFMetrics/logs/psnr_logfile-6.txt'" -f null -
Input #0, matroska,webm, from 'G:\Аниме\Онгоинги\!_33_Зима_2024\DreamCast\Становясь волшебницей\[DC] Mahou Shoujo ni Akogarete - 04_Telegram_HEVC.mkv':
  Metadata:
    COMPATIBLE_BRANDS: isomiso2avc1mp41
    MAJOR_BRAND     : isom
    MINOR_VERSION   : 512
    ENCODER         : Lavf61.7.100
  Duration: 00:23:49.16, start: -0.021000, bitrate: 1204 kb/s
  Stream #0:0: Video: hevc (Main 10), yuv420p10le(tv, bt709, progressive), 1920x1080 [SAR 1:1 DAR 16:9], 23.98 fps, 23.98 tbr, 1k tbn (default)
      Metadata:
        HANDLER_NAME    : VideoHandler
        VENDOR_ID       : [0][0][0][0]
        ENCODER         : Lavc61.19.100 libx265
        BPS             : 1006739
        DURATION        : 00:23:49.010708333
        NUMBER_OF_FRAMES: 34262
        NUMBER_OF_BYTES : 179830163
        _STATISTICS_WRITING_APP: mkvpropedit v66.0.0 ('Josie') 64-bit
        _STATISTICS_WRITING_DATE_UTC: 2025-05-24 09:33:01
        _STATISTICS_TAGS: BPS DURATION NUMBER_OF_FRAMES NUMBER_OF_BYTES
  Stream #0:1: Audio: aac (LC), 48000 Hz, stereo, fltp (default)
      Metadata:
        HANDLER_NAME    : SoundHandler
        VENDOR_ID       : [0][0][0][0]
        ENCODER         : Lavc61.19.100 aac
        BPS             : 193433
        DURATION        : 00:23:49.162000000
        NUMBER_OF_FRAMES: 66993
        NUMBER_OF_BYTES : 34556036
        _STATISTICS_WRITING_APP: mkvpropedit v66.0.0 ('Josie') 64-bit
        _STATISTICS_WRITING_DATE_UTC: 2025-05-24 09:33:01
        _STATISTICS_TAGS: BPS DURATION NUMBER_OF_FRAMES NUMBER_OF_BYTES
Input #1, mov,mp4,m4a,3gp,3g2,mj2, from 'G:\Аниме\Онгоинги\!_33_Зима_2024\DreamCast\Становясь волшебницей\[DC] Mahou Shoujo ni Akogarete - 04_Telegram.mp4':
  Metadata:
    major_brand     : isom
    minor_version   : 512
    compatible_brands: isomiso2avc1mp41
    encoder         : Lavf60.16.100
  Duration: 00:23:49.12, start: 0.000000, bitrate: 3399 kb/s
  Stream #1:0[0x1](und): Video: h264 (High) (avc1 / 0x31637661), yuv420p(tv, bt709, progressive), 1920x1080 [SAR 1:1 DAR 16:9], 3251 kb/s, 23.98 fps, 23.98 tbr, 24k tbn (default)
      Metadata:
        handler_name    : VideoHandler
        vendor_id       : [0][0][0][0]
        encoder         : Lavc60.31.102 h264_qsv
  Stream #1:1[0x2](und): Audio: aac (HE-AACv2) (mp4a / 0x6134706D), 48000 Hz, stereo, fltp, 144 kb/s (default)
      Metadata:
        handler_name    : SoundHandler
        vendor_id       : [0][0][0][0]
Stream mapping:
  Stream #0:0 (hevc) -> settb:default
  Stream #1:0 (h264) -> settb:default
  psnr:default -> Stream #0:0 (wrapped_avframe)
  Stream #0:1 -> #0:1 (aac (native) -> pcm_s16le (native))
Output #0, null, to 'pipe:':
  Metadata:
    COMPATIBLE_BRANDS: isomiso2avc1mp41
    MAJOR_BRAND     : isom
    MINOR_VERSION   : 512
    encoder         : Lavf61.7.100
  Stream #0:0: Video: wrapped_avframe, yuv420p10le(tv, bt709, progressive), 1920x1080 [SAR 1:1 DAR 16:9], q=2-31, 200 kb/s, 23.98 fps, 23.98 tbn
      Metadata:
        encoder         : Lavc61.19.100 wrapped_avframe
  Stream #0:1: Audio: pcm_s16le, 48000 Hz, stereo, s16, 1536 kb/s (default)
      Metadata:
        HANDLER_NAME    : SoundHandler
        VENDOR_ID       : [0][0][0][0]
        _STATISTICS_TAGS: BPS DURATION NUMBER_OF_FRAMES NUMBER_OF_BYTES
        BPS             : 193433
        DURATION        : 00:23:49.162000000
        NUMBER_OF_FRAMES: 66993
        NUMBER_OF_BYTES : 34556036
        _STATISTICS_WRITING_APP: mkvpropedit v66.0.0 ('Josie') 64-bit
        _STATISTICS_WRITING_DATE_UTC: 2025-05-24 09:33:01
        encoder         : Lavc61.19.100 pcm_s16le
frame=  191 fps=0.0 q=-0.0 size=N/A time=00:00:07.96 bitrate=N/A speed=15.5x    frame=  421 fps=411 q=-0.0 size=N/A time=00:00:17.55 bitrate=N/A speed=17.1x    frame=  640 fps=412 q=-0.0 size=N/A time=00:00:26.69 bitrate=N/A speed=17.2x    frame=  848 fps=411 q=-0.0 size=N/A time=00:00:35.36 bitrate=N/A speed=17.2x    frame= 1101 fps=428 q=-0.0 size=N/A time=00:00:45.92 bitrate=N/A speed=17.9x    frame= 1373 fps=443 q=-0.0 size=N/A time=00:00:57.26 bitrate=N/A speed=18.5x    frame= 1610 fps=445 q=-0.0 size=N/A time=00:01:07.19 bitrate=N/A speed=18.6x    frame= 1863 fps=452 q=-0.0 size=N/A time=00:01:17.70 bitrate=N/A speed=18.8x    frame= 2065 fps=444 q=-0.0 size=N/A time=00:01:26.12 bitrate=N/A speed=18.5x    frame= 2269 fps=440 q=-0.0 size=N/A time=00:01:34.63 bitrate=N/A speed=18.4x    frame= 2520 fps=444 q=-0.0 size=N/A time=00:01:45.10 bitrate=N/A speed=18.5x    frame= 2712 fps=438 q=-0.0 size=N/A time=00:01:53.11 bitrate=N/A speed=18.3x    frame= 2938 fps=438 q=-0.0 size=N/A time=00:02:02.53 bitrate=N/A speed=18.3x    frame= 3143 fps=435 q=-0.0 size=N/A time=00:02:11.08 bitrate=N/A speed=18.1x    frame= 3297 fps=426 q=-0.0 size=N/A time=00:02:17.51 bitrate=N/A speed=17.8x    frame= 3494 fps=423 q=-0.0 size=N/A time=00:02:25.72 bitrate=N/A speed=17.6x    frame= 3669 fps=418 q=-0.0 size=N/A time=00:02:33.02 bitrate=N/A speed=17.4x    frame= 3798 fps=409 q=-0.0 size=N/A time=00:02:38.40 bitrate=N/A speed=  17x    frame= 4009 fps=409 q=-0.0 size=N/A time=00:02:47.20 bitrate=N/A speed=  17x    frame= 4263 fps=413 q=-0.0 size=N/A time=00:02:57.80 bitrate=N/A speed=17.2x    frame= 4544 fps=419 q=-0.0 size=N/A time=00:03:09.52 bitrate=N/A speed=17.5x    frame= 4805 fps=423 q=-0.0 size=N/A time=00:03:20.40 bitrate=N/A speed=17.7x    frame= 5098 fps=429 q=-0.0 size=N/A time=00:03:32.62 bitrate=N/A speed=17.9x    frame= 5362 fps=433 q=-0.0 size=N/A time=00:03:43.64 bitrate=N/A speed=18.1x    frame= 5594 fps=433 q=-0.0 size=N/A time=00:03:53.31 bitrate=N/A speed=18.1x    frame= 5836 fps=435 q=-0.0 size=N/A time=00:04:03.40 bitrate=N/A speed=18.1x    frame= 6086 fps=437 q=-0.0 size=N/A time=00:04:13.83 bitrate=N/A speed=18.2x    frame= 6353 fps=439 q=-0.0 size=N/A time=00:04:24.97 bitrate=N/A speed=18.3x    frame= 6610 fps=442 q=-0.0 size=N/A time=00:04:35.69 bitrate=N/A speed=18.4x    frame= 6866 fps=444 q=-0.0 size=N/A time=00:04:46.36 bitrate=N/A speed=18.5x    frame= 7154 fps=447 q=-0.0 size=N/A time=00:04:58.38 bitrate=N/A speed=18.6x    frame= 7372 fps=446 q=-0.0 size=N/A time=00:05:07.47 bitrate=N/A speed=18.6x    frame= 7635 fps=448 q=-0.0 size=N/A time=00:05:18.44 bitrate=N/A speed=18.7x    frame= 7891 fps=450 q=-0.0 size=N/A time=00:05:29.12 bitrate=N/A speed=18.7x    frame= 8127 fps=450 q=-0.0 size=N/A time=00:05:38.96 bitrate=N/A speed=18.8x    frame= 8352 fps=449 q=-0.0 size=N/A time=00:05:48.34 bitrate=N/A speed=18.7x    frame= 8498 fps=445 q=-0.0 size=N/A time=00:05:54.43 bitrate=N/A speed=18.6x    frame= 8752 fps=446 q=-0.0 size=N/A time=00:06:05.03 bitrate=N/A speed=18.6x    frame= 8999 fps=447 q=-0.0 size=N/A time=00:06:15.33 bitrate=N/A speed=18.6x    frame= 9250 fps=448 q=-0.0 size=N/A time=00:06:25.80 bitrate=N/A speed=18.7x    frame= 9503 fps=449 q=-0.0 size=N/A time=00:06:36.35 bitrate=N/A speed=18.7x    frame= 9767 fps=451 q=-0.0 size=N/A time=00:06:47.36 bitrate=N/A speed=18.8x    frame=10023 fps=452 q=-0.0 size=N/A time=00:06:58.04 bitrate=N/A speed=18.8x    frame=10290 fps=453 q=-0.0 size=N/A time=00:07:09.17 bitrate=N/A speed=18.9x    frame=10556 fps=454 q=-0.0 size=N/A time=00:07:20.27 bitrate=N/A speed=  19x    frame=10836 fps=456 q=-0.0 size=N/A time=00:07:31.95 bitrate=N/A speed=  19x    frame=11112 fps=458 q=-0.0 size=N/A time=00:07:43.46 bitrate=N/A speed=19.1x    frame=11350 fps=458 q=-0.0 size=N/A time=00:07:53.38 bitrate=N/A speed=19.1x    frame=11547 fps=456 q=-0.0 size=N/A time=00:08:01.60 bitrate=N/A speed=  19x    frame=11766 fps=456 q=-0.0 size=N/A time=00:08:10.74 bitrate=N/A speed=  19x    frame=12014 fps=456 q=-0.0 size=N/A time=00:08:21.08 bitrate=N/A speed=  19x    frame=12182 fps=454 q=-0.0 size=N/A time=00:08:28.09 bitrate=N/A speed=18.9x    frame=12435 fps=454 q=-0.0 size=N/A time=00:08:38.64 bitrate=N/A speed=  19x    frame=12671 fps=455 q=-0.0 size=N/A time=00:08:48.48 bitrate=N/A speed=  19x    frame=12916 fps=455 q=-0.0 size=N/A time=00:08:58.70 bitrate=N/A speed=  19x    frame=13191 fps=456 q=-0.0 size=N/A time=00:09:10.17 bitrate=N/A speed=  19x    frame=13417 fps=456 q=-0.0 size=N/A time=00:09:19.60 bitrate=N/A speed=  19x    frame=13663 fps=456 q=-0.0 size=N/A time=00:09:29.86 bitrate=N/A speed=  19x    frame=13892 fps=456 q=-0.0 size=N/A time=00:09:39.41 bitrate=N/A speed=  19x    frame=14089 fps=455 q=-0.0 size=N/A time=00:09:47.62 bitrate=N/A speed=  19x    frame=14255 fps=453 q=-0.0 size=N/A time=00:09:54.55 bitrate=N/A speed=18.9x    frame=14460 fps=452 q=-0.0 size=N/A time=00:10:03.10 bitrate=N/A speed=18.8x    frame=14613 fps=449 q=-0.0 size=N/A time=00:10:09.48 bitrate=N/A speed=18.7x    frame=14838 fps=449 q=-0.0 size=N/A time=00:10:18.86 bitrate=N/A speed=18.7x    frame=15112 fps=450 q=-0.0 size=N/A time=00:10:30.29 bitrate=N/A speed=18.8x    frame=15366 fps=451 q=-0.0 size=N/A time=00:10:40.89 bitrate=N/A speed=18.8x    frame=15645 fps=452 q=-0.0 size=N/A time=00:10:52.52 bitrate=N/A speed=18.9x    frame=15904 fps=453 q=-0.0 size=N/A time=00:11:03.32 bitrate=N/A speed=18.9x    frame=16182 fps=454 q=-0.0 size=N/A time=00:11:14.92 bitrate=N/A speed=  19x    frame=16455 fps=455 q=-0.0 size=N/A time=00:11:26.31 bitrate=N/A speed=  19x    frame=16709 fps=456 q=-0.0 size=N/A time=00:11:36.90 bitrate=N/A speed=  19x    frame=16980 fps=457 q=-0.0 size=N/A time=00:11:48.20 bitrate=N/A speed=19.1x    frame=17258 fps=458 q=-0.0 size=N/A time=00:11:59.80 bitrate=N/A speed=19.1x    frame=17507 fps=458 q=-0.0 size=N/A time=00:12:10.18 bitrate=N/A speed=19.1x    frame=17779 fps=459 q=-0.0 size=N/A time=00:12:21.53 bitrate=N/A speed=19.2x    frame=18049 fps=460 q=-0.0 size=N/A time=00:12:32.79 bitrate=N/A speed=19.2x    frame=18299 fps=461 q=-0.0 size=N/A time=00:12:43.22 bitrate=N/A speed=19.2x    frame=18556 fps=461 q=-0.0 size=N/A time=00:12:53.93 bitrate=N/A speed=19.2x    frame=18836 fps=462 q=-0.0 size=N/A time=00:13:05.61 bitrate=N/A speed=19.3x    frame=19107 fps=463 q=-0.0 size=N/A time=00:13:16.92 bitrate=N/A speed=19.3x    frame=19391 fps=464 q=-0.0 size=N/A time=00:13:28.76 bitrate=N/A speed=19.4x    frame=19621 fps=464 q=-0.0 size=N/A time=00:13:38.35 bitrate=N/A speed=19.3x    frame=19899 fps=465 q=-0.0 size=N/A time=00:13:49.95 bitrate=N/A speed=19.4x    frame=20171 fps=465 q=-0.0 size=N/A time=00:14:01.29 bitrate=N/A speed=19.4x    frame=20451 fps=466 q=-0.0 size=N/A time=00:14:12.97 bitrate=N/A speed=19.4x    frame=20698 fps=466 q=-0.0 size=N/A time=00:14:23.27 bitrate=N/A speed=19.5x    frame=20945 fps=467 q=-0.0 size=N/A time=00:14:33.58 bitrate=N/A speed=19.5x    frame=21183 fps=467 q=-0.0 size=N/A time=00:14:43.50 bitrate=N/A speed=19.5x    frame=21412 fps=466 q=-0.0 size=N/A time=00:14:53.05 bitrate=N/A speed=19.4x    frame=21677 fps=467 q=-0.0 size=N/A time=00:15:04.11 bitrate=N/A speed=19.5x    frame=21943 fps=467 q=-0.0 size=N/A time=00:15:15.20 bitrate=N/A speed=19.5x    frame=22161 fps=467 q=-0.0 size=N/A time=00:15:24.29 bitrate=N/A speed=19.5x    frame=22428 fps=467 q=-0.0 size=N/A time=00:15:35.43 bitrate=N/A speed=19.5x    frame=22682 fps=468 q=-0.0 size=N/A time=00:15:46.02 bitrate=N/A speed=19.5x    frame=22954 fps=468 q=-0.0 size=N/A time=00:15:57.37 bitrate=N/A speed=19.5x    frame=23206 fps=469 q=-0.0 size=N/A time=00:16:07.88 bitrate=N/A speed=19.5x    frame=23454 fps=469 q=-0.0 size=N/A time=00:16:18.22 bitrate=N/A speed=19.5x    frame=23729 fps=469 q=-0.0 size=N/A time=00:16:29.69 bitrate=N/A speed=19.6x    frame=23987 fps=470 q=-0.0 size=N/A time=00:16:40.45 bitrate=N/A speed=19.6x    frame=24250 fps=470 q=-0.0 size=N/A time=00:16:51.42 bitrate=N/A speed=19.6x    frame=24504 fps=470 q=-0.0 size=N/A time=00:17:02.02 bitrate=N/A speed=19.6x    frame=24741 fps=470 q=-0.0 size=N/A time=00:17:11.90 bitrate=N/A speed=19.6x    frame=25002 fps=471 q=-0.0 size=N/A time=00:17:22.79 bitrate=N/A speed=19.6x    frame=25277 fps=471 q=-0.0 size=N/A time=00:17:34.26 bitrate=N/A speed=19.6x    frame=25519 fps=471 q=-0.0 size=N/A time=00:17:44.35 bitrate=N/A speed=19.6x    frame=25766 fps=471 q=-0.0 size=N/A time=00:17:54.65 bitrate=N/A speed=19.6x    frame=25997 fps=471 q=-0.0 size=N/A time=00:18:04.29 bitrate=N/A speed=19.6x    frame=26261 fps=471 q=-0.0 size=N/A time=00:18:15.30 bitrate=N/A speed=19.7x    frame=26497 fps=471 q=-0.0 size=N/A time=00:18:25.14 bitrate=N/A speed=19.7x    frame=26728 fps=471 q=-0.0 size=N/A time=00:18:34.78 bitrate=N/A speed=19.6x    frame=26957 fps=471 q=-0.0 size=N/A time=00:18:44.37 bitrate=N/A speed=19.6x    frame=27200 fps=471 q=-0.0 size=N/A time=00:18:54.46 bitrate=N/A speed=19.6x    frame=27370 fps=469 q=-0.0 size=N/A time=00:19:01.55 bitrate=N/A speed=19.6x    frame=27556 fps=469 q=-0.0 size=N/A time=00:19:09.31 bitrate=N/A speed=19.5x    frame=27780 fps=468 q=-0.0 size=N/A time=00:19:18.65 bitrate=N/A speed=19.5x    frame=27988 fps=468 q=-0.0 size=N/A time=00:19:27.33 bitrate=N/A speed=19.5x    frame=28176 fps=467 q=-0.0 size=N/A time=00:19:35.17 bitrate=N/A speed=19.5x    frame=28399 fps=467 q=-0.0 size=N/A time=00:19:44.47 bitrate=N/A speed=19.5x    frame=28648 fps=467 q=-0.0 size=N/A time=00:19:54.86 bitrate=N/A speed=19.5x    frame=28873 fps=466 q=-0.0 size=N/A time=00:20:04.24 bitrate=N/A speed=19.5x    frame=29090 fps=466 q=-0.0 size=N/A time=00:20:13.29 bitrate=N/A speed=19.4x    frame=29345 fps=466 q=-0.0 size=N/A time=00:20:23.93 bitrate=N/A speed=19.4x    frame=29532 fps=465 q=-0.0 size=N/A time=00:20:31.73 bitrate=N/A speed=19.4x    frame=29773 fps=465 q=-0.0 size=N/A time=00:20:41.78 bitrate=N/A speed=19.4x    frame=30013 fps=465 q=-0.0 size=N/A time=00:20:51.79 bitrate=N/A speed=19.4x    frame=30229 fps=465 q=-0.0 size=N/A time=00:21:00.80 bitrate=N/A speed=19.4x    frame=30411 fps=464 q=-0.0 size=N/A time=00:21:08.39 bitrate=N/A speed=19.4x    frame=30613 fps=464 q=-0.0 size=N/A time=00:21:16.81 bitrate=N/A speed=19.3x    frame=30851 fps=464 q=-0.0 size=N/A time=00:21:26.74 bitrate=N/A speed=19.3x    frame=31043 fps=463 q=-0.0 size=N/A time=00:21:34.75 bitrate=N/A speed=19.3x    frame=31218 fps=462 q=-0.0 size=N/A time=00:21:42.05 bitrate=N/A speed=19.3x    frame=31452 fps=462 q=-0.0 size=N/A time=00:21:51.81 bitrate=N/A speed=19.3x    frame=31715 fps=462 q=-0.0 size=N/A time=00:22:02.77 bitrate=N/A speed=19.3x    frame=31961 fps=462 q=-0.0 size=N/A time=00:22:13.04 bitrate=N/A speed=19.3x    frame=32216 fps=463 q=-0.0 size=N/A time=00:22:23.67 bitrate=N/A speed=19.3x    frame=32448 fps=463 q=-0.0 size=N/A time=00:22:33.35 bitrate=N/A speed=19.3x    frame=32678 fps=462 q=-0.0 size=N/A time=00:22:42.94 bitrate=N/A speed=19.3x    frame=32910 fps=462 q=-0.0 size=N/A time=00:22:52.62 bitrate=N/A speed=19.3x    frame=33130 fps=462 q=-0.0 size=N/A time=00:23:01.79 bitrate=N/A speed=19.3x    frame=33363 fps=462 q=-0.0 size=N/A time=00:23:11.51 bitrate=N/A speed=19.3x    frame=33603 fps=462 q=-0.0 size=N/A time=00:23:21.52 bitrate=N/A speed=19.3x    frame=33842 fps=462 q=-0.0 size=N/A time=00:23:31.49 bitrate=N/A speed=19.3x    frame=34072 fps=462 q=-0.0 size=N/A time=00:23:41.08 bitrate=N/A speed=19.3x    [Parsed_psnr_10 @ 000002c4a4fdbb80] PSNR y:47.982192 u:50.171103 v:50.078465 average:48.585981 min:39.745547 max:inf
[out#0/null @ 000002c49d4a3b80] video:14722KiB audio:267972KiB subtitle:0KiB other streams:0KiB global headers:0KiB muxing overhead: unknown
frame=34262 fps=462 q=-0.0 Lsize=N/A time=00:23:49.01 bitrate=N/A speed=19.3x    
